<svg xmlns="http://www.w3.org/2000/svg" width="64" height="64" fill="none"><path fill="#fff" d="M56.898 0H7.093A7.092 7.092 0 0 0 0 7.094v56.02A.89.89 0 0 0 .887 64h11.088V51.98c0-.794.642-1.437 1.436-1.437h9.24c.793 0 1.435.643 1.435 1.437V64h12.152V50.765c0-.382.151-.745.422-1.016l6.92-6.921a1.44 1.44 0 0 1 2.03 0l6.925 6.921c.27.27.422.634.422 1.016V64h3.95A7.092 7.092 0 0 0 64 56.906V7.094A7.092 7.092 0 0 0 56.907 0h-.01Zm-3.383 23.633a2.487 2.487 0 0 1-2.988-2.988 2.47 2.47 0 0 1 1.853-1.854 2.487 2.487 0 0 1 2.988 2.989 2.47 2.47 0 0 1-1.853 1.853Z"/></svg>
