<svg width="297" height="227" viewBox="0 0 297 227" fill="none" xmlns="http://www.w3.org/2000/svg">
<path d="M98.2976 0C90.3982 0 84 6.34945 84 14.1887V126.226C84 127.202 84.8042 128 85.7872 128H108.136V103.959C108.136 102.372 109.432 101.086 111.031 101.086H129.654C131.254 101.086 132.549 102.372 132.549 103.959V128H157.043V101.529C157.043 100.767 157.347 100.039 157.892 99.4984L171.841 85.6555C172.967 84.5382 174.799 84.5382 175.933 85.6555L189.892 99.4984C190.437 100.039 190.74 100.767 190.74 101.529V128H198.702C206.602 128 213 121.651 213 113.811V14.1887C213 6.34945 206.602 0 198.702 0H98.2976ZM191.866 47.2662C188.212 48.0732 185.03 44.9162 185.844 41.2892C186.255 39.4624 187.738 37.9903 189.579 37.5824C193.234 36.7754 196.415 39.9324 195.602 43.5594C195.191 45.3862 193.707 46.8583 191.866 47.2662Z" fill="#423E3E"/>
<path fill-rule="evenodd" clip-rule="evenodd" d="M127.872 171.117C138.842 171.117 145.859 180.042 145.859 192.906C145.859 205.771 138.598 214.696 127.953 214.696C122.147 214.696 118.357 212.362 116.016 208.827H115.853V225.755C115.853 226.44 115.291 227 114.605 227H104.884V172.244H115.447V177.391H115.691C118.351 173.775 122.222 171.117 127.872 171.117ZM125.212 179.961C118.432 179.961 115.616 185.83 115.616 193.23C115.616 200.63 119.087 205.615 125.618 205.615C131.181 205.615 134.734 201.035 134.734 193.23C134.734 185.432 131.993 179.961 125.212 179.961Z" fill="#423E3E"/>
<path fill-rule="evenodd" clip-rule="evenodd" d="M20.41 171.117C33.721 171.117 40.8194 181.25 40.8195 195.962H10.8138C11.6192 202.317 15.1717 206.256 21.3776 206.256C25.6543 206.256 28.1518 204.327 29.363 201.19H40.1701C38.6404 208.509 32.1037 214.702 21.4587 214.702C7.74825 214.702 0 205.136 0 192.832V192.826C5.16498e-05 180.602 8.31031 171.117 20.41 171.117ZM20.5722 179.563C14.7659 179.563 11.9437 183.024 10.976 188.407H29.363C29.0384 183.179 25.5732 179.563 20.5722 179.563Z" fill="#423E3E"/>
<path fill-rule="evenodd" clip-rule="evenodd" d="M80.4652 171.117C93.7762 171.117 100.875 181.25 100.875 195.962H70.8696C71.675 202.317 75.2275 206.256 81.4334 206.256C85.71 206.256 88.2076 204.327 89.4188 201.19H100.226C98.6962 208.509 92.1594 214.702 81.5146 214.702C67.804 214.702 60.0558 205.136 60.0558 192.832V192.826C60.0559 180.602 68.3657 171.118 80.4652 171.117ZM80.628 179.563C74.8216 179.563 71.9995 183.023 71.0318 188.407H89.4188C89.0942 183.179 85.6289 179.563 80.628 179.563Z" fill="#423E3E"/>
<path fill-rule="evenodd" clip-rule="evenodd" d="M211.141 171.198C223.24 171.198 228.566 176.744 228.566 186.396V207.383C228.566 210.52 229.046 212.368 230.02 213.09V213.494H219.456C218.814 212.692 218.408 210.762 218.165 208.914V208.908H218.002C215.904 212.044 212.92 214.453 205.821 214.453C197.349 214.453 191.38 210.028 191.38 201.831C191.38 192.745 198.804 189.851 207.994 188.563C214.849 187.598 217.996 187.038 217.996 183.901C217.996 180.764 215.654 178.997 211.059 178.997C205.896 178.997 203.399 180.845 203.074 184.785H193.315C193.64 177.546 199.041 171.198 211.141 171.198ZM218.246 192.745C216.31 193.871 213.326 194.512 210.585 195.159C204.86 196.448 202.038 197.73 202.038 201.595C202.038 205.46 204.616 206.823 208.493 206.823C214.787 206.823 218.252 202.964 218.252 198.944L218.246 198.937V192.745Z" fill="#423E3E"/>
<path d="M288.409 159.379C289.096 159.379 289.658 159.94 289.658 160.624V172.244H297V179.482H289.658V201.352C289.658 204.408 291.35 205.453 293.772 205.453C295.141 205.453 296.986 205.373 297 205.373V213.414C296.985 213.415 294.489 213.575 290.145 213.575C284.819 213.575 278.932 211.484 278.932 203.686V179.482H273.207V172.244H278.932V159.379H288.409Z" fill="#423E3E"/>
<path d="M161.118 177.627H161.362C164.346 173.283 167.736 171.117 173.38 171.117C181.934 171.117 187.659 177.553 187.659 186.559V213.494H176.689V188.164C176.689 183.739 174.11 180.609 169.509 180.609C164.671 180.609 161.118 184.467 161.118 190.1V213.501H150.148V157.245C150.148 156.56 150.71 156 151.397 156H161.118V177.627Z" fill="#423E3E"/>
<path d="M256.936 171.117C265.483 171.117 271.215 177.553 271.215 186.559V213.494H260.245V188.164C260.245 183.739 257.666 180.609 253.065 180.609C248.226 180.609 244.674 184.467 244.674 190.1V213.501H233.704V173.489C233.704 172.804 234.266 172.244 234.953 172.244H244.43V177.87H244.674C247.496 173.445 251.286 171.117 256.936 171.117Z" fill="#423E3E"/>
<path d="M55.9598 213.494H44.9905V157.245C44.9905 156.56 45.5524 156 46.2392 156H55.9598V213.494Z" fill="#423E3E"/>
</svg>
